<?xml version="1.0" encoding="utf-8"?>
<!-- Generator: Adobe Illustrator 27.0.0, SVG Export Plug-In . SVG Version: 6.00 Build 0)  -->
<svg version="1.1" id="Layer_1" xmlns="http://www.w3.org/2000/svg" xmlns:xlink="http://www.w3.org/1999/xlink" x="0px" y="0px"
	 viewBox="0 0 365 90" style="enable-background:new 0 0 365 90;" xml:space="preserve">
<style type="text/css">
	.st0{fill:#C42156;}
	.st1{fill:#FFFFFF;}
	.st2{fill:#504B8E;}
</style>
<g>
	<path class="st0" d="M72.96,7.96c-6.76-0.59-15.26,3.3-17.29,9.53c-2.03-6.23-12.4-10.07-19.15-9.47
		C18.68,9.59,12.64,31.07,20.2,45.51c4.07,7.77,9.92,14.57,16.3,20.67c5.34,5.11,19.12,15.95,19.17,15.91
		c0.04,0.04,13.82-10.8,19.17-15.91c6.38-6.1,12.23-12.9,16.3-20.67C98.69,31.07,90.79,9.53,72.96,7.96z"/>
	<path class="st1" d="M87.37,41.23c-4.67,0.13-9.34,0.26-14.01,0.38c-1.69-6.62-3.38-13.24-5.07-19.86c-0.24-0.96-1.56-0.89-1.84,0
		C62.83,33.28,59.22,44.8,55.6,56.33c-0.21,0.67-0.42,1.33-0.63,2c-2.46-7.59-4.92-15.17-7.38-22.76c-0.39-1.22-0.79-2.43-1.18-3.65
		c-0.24-0.73-1.36-1.02-1.74-0.23c-1.79,3.69-3.57,7.37-5.36,11.06c-5.23,0-10.45,0-15.68,0c-1.23,0-1.23,1.94,0,1.94
		c5.42,0,10.85,0,16.27,0c0.32,0,0.68-0.18,0.82-0.48c1.53-3.16,3.06-6.32,4.59-9.48c2.52,7.78,5.04,15.57,7.57,23.35
		c0.39,1.22,0.79,2.43,1.18,3.65c0.3,0.91,1.55,0.93,1.84,0c3.62-11.52,7.23-23.05,10.85-34.57c0.17-0.55,0.35-1.1,0.52-1.65
		c1.48,5.79,2.95,11.57,4.43,17.36c0.1,0.4,0.51,0.72,0.92,0.71c4.91-0.13,9.83-0.27,14.74-0.4C88.59,43.14,88.6,41.2,87.37,41.23z"
		/>
</g>
<g>
	<g>
		<path class="st2" d="M107.36,27.03h23.26v5.4h-16.83v9.69h15.91v5.18h-15.91v10.26h16.83v5.4h-23.26V27.03z"/>
		<path class="st2" d="M142.89,61.32c-2.53-1.51-4.48-3.66-5.85-6.44c-1.37-2.78-2.05-6.08-2.05-9.9v-0.02
			c0-3.82,0.69-7.11,2.07-9.89c1.38-2.77,3.33-4.91,5.85-6.41c2.52-1.5,5.5-2.25,8.94-2.25c2.76,0,5.23,0.53,7.41,1.59
			c2.18,1.06,3.96,2.53,5.34,4.41c1.38,1.88,2.22,4.03,2.54,6.47l0.02,0.25h-6.3l-0.12-0.47c-0.35-1.38-0.92-2.56-1.72-3.56
			s-1.8-1.77-3.01-2.32c-1.21-0.55-2.6-0.82-4.16-0.82c-2.09,0-3.91,0.53-5.45,1.59c-1.54,1.06-2.74,2.56-3.59,4.5
			s-1.27,4.24-1.27,6.91v0.02c0,2.66,0.42,4.96,1.27,6.91c0.85,1.95,2.05,3.46,3.6,4.53c1.55,1.07,3.37,1.61,5.44,1.61
			c1.53,0,2.89-0.27,4.1-0.81c1.2-0.54,2.22-1.32,3.05-2.35c0.83-1.03,1.44-2.28,1.82-3.76l0.07-0.25h6.3l-0.05,0.27
			c-0.3,2.44-1.14,4.6-2.52,6.47c-1.38,1.88-3.16,3.34-5.35,4.39c-2.19,1.05-4.67,1.58-7.42,1.58
			C148.4,63.59,145.42,62.83,142.89,61.32z"/>
		<path class="st2" d="M180.75,62.31c-2.09-0.85-3.88-2.1-5.35-3.72c-1.48-1.63-2.61-3.6-3.4-5.91c-0.79-2.32-1.18-4.92-1.18-7.81
			v-0.02c0-3.82,0.69-7.1,2.07-9.85c1.38-2.75,3.33-4.86,5.86-6.35s5.52-2.23,8.95-2.23c2.84,0,5.33,0.5,7.47,1.51
			c2.14,1,3.89,2.37,5.24,4.11c1.35,1.73,2.25,3.71,2.7,5.91l0.1,0.42h-6.5l-0.1-0.27c-0.68-1.93-1.78-3.43-3.3-4.51
			c-1.52-1.08-3.38-1.62-5.59-1.62c-2.16,0-4.01,0.51-5.55,1.52c-1.54,1.01-2.73,2.48-3.56,4.4c-0.83,1.92-1.25,4.22-1.25,6.91v0.02
			c0,2.06,0.24,3.91,0.72,5.54c0.48,1.64,1.18,3.02,2.1,4.16c0.92,1.14,2.03,2.01,3.32,2.61c1.29,0.61,2.75,0.91,4.38,0.91
			c1.81,0,3.41-0.35,4.79-1.05s2.47-1.68,3.26-2.94c0.79-1.26,1.2-2.73,1.23-4.41l0.02-0.55h-8.91v-5.01h15.19v3.89
			c0,2.42-0.35,4.6-1.06,6.52c-0.71,1.93-1.74,3.57-3.09,4.92c-1.35,1.35-3,2.39-4.93,3.1c-1.93,0.71-4.13,1.07-6.59,1.07
			C185.2,63.59,182.84,63.16,180.75,62.31z"/>
		<path class="st2" d="M218.95,27.03h6.42v35.93h-6.42V27.03z M222.16,45.91h9.04c2.32,0,4.12-0.59,5.39-1.78
			c1.27-1.19,1.91-2.86,1.91-5.02v-0.05c0-2.17-0.64-3.85-1.91-5.03c-1.27-1.18-3.07-1.77-5.39-1.77h-9.04v-5.23h10.63
			c2.42,0,4.55,0.5,6.39,1.49c1.83,1,3.27,2.4,4.29,4.2s1.54,3.91,1.54,6.31v0.05c0,2.39-0.51,4.49-1.54,6.29
			c-1.03,1.8-2.46,3.2-4.29,4.21c-1.83,1-3.96,1.51-6.39,1.51h-10.63V45.91z"/>
		<path class="st2" d="M254.01,61.83c-1.91-1.1-3.39-2.68-4.45-4.73c-1.05-2.05-1.58-4.5-1.58-7.33v-0.05
			c0-2.82,0.53-5.26,1.59-7.31c1.06-2.05,2.55-3.63,4.46-4.73s4.14-1.66,6.7-1.66c2.57,0,4.82,0.55,6.74,1.66
			c1.92,1.1,3.41,2.68,4.47,4.72s1.59,4.48,1.59,7.32v0.05c0,2.86-0.53,5.31-1.58,7.36c-1.05,2.05-2.54,3.62-4.44,4.72
			c-1.91,1.1-4.16,1.64-6.75,1.64S255.92,62.94,254.01,61.83z M264.2,57.46c0.96-0.68,1.71-1.67,2.23-2.98
			c0.52-1.3,0.79-2.88,0.79-4.72v-0.05c0-1.83-0.27-3.39-0.8-4.68c-0.53-1.29-1.28-2.28-2.25-2.96c-0.97-0.68-2.11-1.02-3.42-1.02
			c-1.28,0-2.4,0.34-3.37,1.02c-0.97,0.68-1.73,1.67-2.27,2.96c-0.54,1.29-0.81,2.85-0.81,4.68v0.05c0,1.84,0.27,3.42,0.81,4.72
			c0.54,1.3,1.29,2.3,2.27,2.98c0.97,0.68,2.11,1.02,3.42,1.02C262.09,58.48,263.23,58.14,264.2,57.46z"/>
		<path class="st2" d="M277.49,36.57h6.18v4.56h0.15c0.4-1.59,1.12-2.84,2.18-3.75c1.05-0.9,2.34-1.36,3.87-1.36
			c0.38,0,0.75,0.02,1.1,0.07s0.64,0.11,0.87,0.17v5.6c-0.25-0.1-0.6-0.18-1.06-0.25c-0.46-0.07-0.95-0.1-1.48-0.1
			c-1.16,0-2.17,0.24-3.01,0.71s-1.49,1.17-1.94,2.08s-0.67,2.03-0.67,3.34v15.31h-6.18V36.57z"/>
		<path class="st2" d="M298.67,61.7c-1.34-1.2-2-3.15-2-5.88V41.35h-3.74v-4.78h3.74v-6.7h6.3v6.7h4.91v4.78h-4.91v13.97
			c0,1.28,0.29,2.16,0.86,2.65c0.57,0.49,1.42,0.74,2.53,0.74c0.31,0,0.59-0.01,0.83-0.04c0.24-0.02,0.47-0.04,0.68-0.06v4.66
			c-0.37,0.05-0.81,0.1-1.33,0.15c-0.52,0.05-1.11,0.07-1.76,0.07C302.05,63.49,300.01,62.89,298.67,61.7z"/>
		<path class="st2" d="M315.28,62.41c-1.34-0.67-2.37-1.61-3.11-2.81c-0.74-1.2-1.11-2.59-1.11-4.15V55.4
			c0-1.58,0.39-2.93,1.18-4.05c0.79-1.12,1.93-2.01,3.42-2.66s3.3-1.05,5.43-1.18l10.09-0.62v4.11l-9.21,0.57
			c-1.53,0.1-2.7,0.47-3.51,1.1c-0.81,0.63-1.22,1.47-1.22,2.52v0.02c0,1.08,0.41,1.93,1.23,2.55c0.82,0.62,1.91,0.93,3.27,0.93
			c1.2,0,2.26-0.24,3.2-0.72c0.94-0.48,1.68-1.14,2.23-1.97s0.82-1.77,0.82-2.81v-7.92c0-1.33-0.42-2.38-1.26-3.15
			c-0.84-0.77-2.05-1.16-3.62-1.16c-1.46,0-2.63,0.31-3.51,0.93s-1.43,1.42-1.64,2.4l-0.05,0.22h-5.73l0.03-0.3
			c0.13-1.56,0.66-2.96,1.57-4.2c0.91-1.24,2.18-2.21,3.8-2.93c1.62-0.71,3.54-1.07,5.76-1.07c2.21,0,4.12,0.37,5.74,1.1
			c1.62,0.73,2.87,1.75,3.76,3.06c0.89,1.31,1.33,2.86,1.33,4.63v18.15h-6.18v-4.06h-0.15c-0.5,0.91-1.15,1.71-1.94,2.39
			s-1.71,1.2-2.73,1.57c-1.02,0.37-2.11,0.55-3.27,0.55C318.16,63.42,316.62,63.08,315.28,62.41z"/>
		<path class="st2" d="M339.35,27.03h6.2v35.93h-6.2V27.03z"/>
	</g>
</g>
</svg>
