<?xml version="1.0" encoding="utf-8"?>
<!-- Generator: Adobe Illustrator 27.0.0, SVG Export Plug-In . SVG Version: 6.00 Build 0)  -->
<svg version="1.1" id="Layer_1" xmlns="http://www.w3.org/2000/svg" xmlns:xlink="http://www.w3.org/1999/xlink" x="0px" y="0px"
	 viewBox="0 0 90 73" style="enable-background:new 0 0 90 73;" xml:space="preserve">
<style type="text/css">
	.st0{fill:#C42156;}
	.st1{fill:#FFFFFF;}
</style>
<g>
	<path class="st0" d="M62.01,0.4c-6.59-0.58-14.87,3.22-16.85,9.29c-1.98-6.07-12.08-9.81-18.67-9.23C9.11,1.99,3.23,22.92,10.6,37
		c3.97,7.58,9.67,14.2,15.88,20.15c5.21,4.98,18.64,15.54,18.68,15.51c0.04,0.04,13.47-10.53,18.68-15.51
		C70.06,51.2,75.76,44.57,79.73,37C87.1,22.92,79.4,1.93,62.01,0.4z"/>
	<path class="st1" d="M76.06,32.83c-4.55,0.12-9.1,0.25-13.65,0.37c-1.65-6.45-3.29-12.9-4.94-19.36c-0.24-0.93-1.52-0.86-1.79,0
		c-3.52,11.23-7.05,22.46-10.57,33.69c-0.2,0.65-0.41,1.3-0.61,1.95c-2.4-7.39-4.79-14.79-7.19-22.18
		c-0.38-1.19-0.77-2.37-1.15-3.56c-0.23-0.71-1.32-1-1.7-0.23c-1.74,3.59-3.48,7.18-5.23,10.78c-5.09,0-10.19,0-15.28,0
		c-1.2,0-1.2,1.89,0,1.89c5.29,0,10.57,0,15.86,0c0.31,0,0.66-0.18,0.8-0.47c1.49-3.08,2.99-6.16,4.48-9.23
		c2.46,7.59,4.92,15.17,7.37,22.76c0.38,1.19,0.77,2.37,1.15,3.56c0.29,0.89,1.51,0.9,1.79,0c3.52-11.23,7.05-22.46,10.57-33.69
		c0.17-0.54,0.34-1.07,0.51-1.61c1.44,5.64,2.88,11.28,4.32,16.92c0.1,0.39,0.49,0.7,0.9,0.69c4.79-0.13,9.58-0.26,14.37-0.39
		C77.25,34.68,77.26,32.8,76.06,32.83z"/>
</g>
</svg>
